<svg width="240" height="20" viewBox="0 0 240 20" fill="none" xmlns="http://www.w3.org/2000/svg">
<path d="M232.934 2.63159C235.145 2.63159 236.755 3.06581 237.766 3.93425C238.776 4.80269 239.281 6.0264 239.281 7.60538C239.281 8.30013 239.163 8.9712 238.926 9.61858C238.705 10.2502 238.334 10.8186 237.813 11.3239C237.292 11.8292 236.597 12.2318 235.729 12.5318C234.86 12.816 233.795 12.9581 232.531 12.9581H230.589V19.5425H228.458V2.63159H232.934ZM232.745 4.45531H230.589V11.1344H232.295C233.368 11.1344 234.26 11.0239 234.971 10.8028C235.681 10.566 236.21 10.1949 236.558 9.68964C236.905 9.18436 237.079 8.52119 237.079 7.70012C237.079 6.61062 236.731 5.79745 236.037 5.26059C235.342 4.72374 234.245 4.45531 232.745 4.45531Z" fill="black"/>
<path d="M224.71 11.0634C224.71 12.3739 224.544 13.5661 224.212 14.6398C223.881 15.6977 223.383 16.6135 222.72 17.3872C222.073 18.1609 221.259 18.753 220.281 19.1635C219.317 19.5741 218.196 19.7794 216.917 19.7794C215.591 19.7794 214.438 19.5741 213.459 19.1635C212.48 18.7372 211.667 18.1451 211.02 17.3872C210.372 16.6135 209.891 15.6898 209.575 14.6161C209.259 13.5424 209.101 12.3502 209.101 11.0397C209.101 9.30282 209.386 7.787 209.954 6.49223C210.522 5.19747 211.383 4.18692 212.536 3.46059C213.704 2.73426 215.173 2.37109 216.941 2.37109C218.63 2.37109 220.052 2.73426 221.204 3.46059C222.357 4.17113 223.225 5.18168 223.81 6.49223C224.41 7.787 224.71 9.31071 224.71 11.0634ZM211.351 11.0634C211.351 12.4845 211.549 13.7082 211.943 14.7345C212.338 15.7608 212.946 16.5503 213.767 17.103C214.604 17.6556 215.654 17.9319 216.917 17.9319C218.196 17.9319 219.238 17.6556 220.044 17.103C220.865 16.5503 221.473 15.7608 221.867 14.7345C222.262 13.7082 222.459 12.4845 222.459 11.0634C222.459 8.93176 222.017 7.26593 221.133 6.06591C220.249 4.85009 218.852 4.24219 216.941 4.24219C215.662 4.24219 214.604 4.51851 213.767 5.07115C212.946 5.608 212.338 6.3896 211.943 7.41594C211.549 8.42648 211.351 9.6423 211.351 11.0634Z" fill="black"/>
<path d="M205.33 19.5425H203.199V11.6555H194.53V19.5425H192.399V2.63159H194.53V9.78437H203.199V2.63159H205.33V19.5425Z" fill="black"/>
<path d="M188.992 15.0187C188.992 16.0293 188.747 16.8898 188.258 17.6004C187.768 18.2951 187.066 18.832 186.15 19.2109C185.25 19.5899 184.184 19.7793 182.952 19.7793C182.321 19.7793 181.713 19.7478 181.129 19.6846C180.56 19.6215 180.039 19.5346 179.566 19.4241C179.092 19.2978 178.673 19.1478 178.31 18.9741V16.9372C178.879 17.1898 179.581 17.4188 180.418 17.624C181.271 17.8293 182.147 17.9319 183.047 17.9319C183.884 17.9319 184.587 17.8214 185.155 17.6004C185.724 17.3793 186.15 17.0635 186.434 16.653C186.718 16.2424 186.86 15.7608 186.86 15.2082C186.86 14.6556 186.742 14.1898 186.505 13.8108C186.268 13.4318 185.858 13.0845 185.274 12.7687C184.705 12.4371 183.908 12.0897 182.881 11.7265C182.155 11.4581 181.516 11.1739 180.963 10.8739C180.426 10.5581 179.976 10.2028 179.613 9.80809C179.25 9.41334 178.973 8.96333 178.784 8.45806C178.61 7.95279 178.523 7.36856 178.523 6.70539C178.523 5.80537 178.752 5.03957 179.21 4.40797C179.668 3.76059 180.3 3.26322 181.105 2.91584C181.926 2.56846 182.866 2.39478 183.924 2.39478C184.855 2.39478 185.708 2.48162 186.481 2.65531C187.255 2.82899 187.958 3.05795 188.589 3.34216L187.926 5.16589C187.342 4.91325 186.703 4.70009 186.008 4.5264C185.329 4.35271 184.618 4.26587 183.876 4.26587C183.166 4.26587 182.573 4.3685 182.1 4.57377C181.626 4.77904 181.271 5.07115 181.034 5.4501C180.797 5.81327 180.679 6.23959 180.679 6.72908C180.679 7.29751 180.797 7.7712 181.034 8.15016C181.271 8.52911 181.658 8.8686 182.195 9.1686C182.731 9.46861 183.458 9.7923 184.374 10.1397C185.368 10.5028 186.205 10.8976 186.884 11.3239C187.579 11.7344 188.1 12.2318 188.447 12.816C188.81 13.4003 188.992 14.1345 188.992 15.0187Z" fill="black"/>
<path d="M170.417 14.1186V12.2712H176.149V14.1186H170.417Z" fill="black"/>
<path d="M163.017 6.6106C164.106 6.6106 165.038 6.84744 165.811 7.32114C166.601 7.79483 167.201 8.4659 167.611 9.33434C168.038 10.187 168.251 11.1896 168.251 12.3423V13.5976H159.559C159.59 15.0345 159.953 16.1318 160.648 16.8898C161.359 17.6319 162.346 18.0029 163.609 18.0029C164.414 18.0029 165.125 17.9319 165.74 17.7898C166.372 17.6319 167.019 17.4108 167.682 17.1266V18.9503C167.035 19.2345 166.396 19.4398 165.764 19.5661C165.132 19.7082 164.382 19.7793 163.514 19.7793C162.314 19.7793 161.248 19.5345 160.317 19.0451C159.401 18.5556 158.682 17.8292 158.161 16.8661C157.656 15.8871 157.403 14.695 157.403 13.2897C157.403 11.9002 157.632 10.708 158.09 9.71329C158.564 8.71853 159.219 7.95273 160.056 7.41588C160.909 6.87902 161.896 6.6106 163.017 6.6106ZM162.993 8.31589C161.998 8.31589 161.209 8.63959 160.624 9.28697C160.056 9.91856 159.717 10.8028 159.606 11.9397H166.072C166.072 11.2133 165.961 10.5817 165.74 10.0449C165.519 9.50802 165.18 9.08959 164.722 8.78959C164.28 8.47379 163.703 8.31589 162.993 8.31589Z" fill="black"/>
<path d="M139.825 19.5425V2.63159H141.957V17.6477H149.346V19.5425H139.825Z" fill="black"/>
<path d="M136.114 19.5425H126.664V2.63159H136.114V4.50268H128.796V9.78437H135.688V11.6318H128.796V17.6714H136.114V19.5425Z" fill="black"/>
<path d="M118.856 19.5425H116.725V4.50268H111.443V2.63159H124.114V4.50268H118.856V19.5425Z" fill="black"/>
<path d="M110.472 11.0634C110.472 12.3739 110.307 13.5661 109.975 14.6398C109.644 15.6977 109.146 16.6135 108.483 17.3872C107.836 18.1609 107.022 18.753 106.043 19.1635C105.08 19.5741 103.959 19.7794 102.68 19.7794C101.354 19.7794 100.201 19.5741 99.2222 19.1635C98.2433 18.7372 97.4301 18.1451 96.7827 17.3872C96.1353 16.6135 95.6537 15.6898 95.338 14.6161C95.0222 13.5424 94.8643 12.3502 94.8643 11.0397C94.8643 9.30282 95.1485 7.787 95.7169 6.49223C96.2853 5.19747 97.1459 4.18692 98.2985 3.46059C99.467 2.73426 100.935 2.37109 102.704 2.37109C104.393 2.37109 105.814 2.73426 106.967 3.46059C108.12 4.17113 108.988 5.18168 109.572 6.49223C110.172 7.787 110.472 9.31071 110.472 11.0634ZM97.1143 11.0634C97.1143 12.4845 97.3117 13.7082 97.7064 14.7345C98.1012 15.7608 98.7091 16.5503 99.5301 17.103C100.367 17.6556 101.417 17.9319 102.68 17.9319C103.959 17.9319 105.001 17.6556 105.807 17.103C106.628 16.5503 107.236 15.7608 107.63 14.7345C108.025 13.7082 108.222 12.4845 108.222 11.0634C108.222 8.93176 107.78 7.26593 106.896 6.06591C106.012 4.85009 104.614 4.24219 102.704 4.24219C101.425 4.24219 100.367 4.51851 99.5301 5.07115C98.7091 5.608 98.1012 6.3896 97.7064 7.41594C97.3117 8.42648 97.1143 9.6423 97.1143 11.0634Z" fill="black"/>
<path d="M91.0933 19.5425H88.9617V11.6555H80.2931V19.5425H78.1615V2.63159H80.2931V9.78437H88.9617V2.63159H91.0933V19.5425Z" fill="black"/>
<path d="M68.2985 19.5425H58.8483V2.63159H68.2985V4.50268H60.9799V9.78437H67.8722V11.6318H60.9799V17.6714H68.2985V19.5425Z" fill="black"/>
<path d="M51.0403 19.5425H48.9087V4.50268H43.627V2.63159H56.2983V4.50268H51.0403V19.5425Z" fill="black"/>
<path d="M37.417 19.5425H35.2854V4.50268H30.0037V2.63159H42.675V4.50268H37.417V19.5425Z" fill="black"/>
<path d="M29.0331 11.0634C29.0331 12.3739 28.8674 13.5661 28.5358 14.6398C28.2042 15.6977 27.7068 16.6135 27.0436 17.3872C26.3963 18.1609 25.5831 18.753 24.6041 19.1635C23.6409 19.5741 22.5199 19.7794 21.2409 19.7794C19.9145 19.7794 18.7619 19.5741 17.7829 19.1635C16.8039 18.7372 15.9908 18.1451 15.3434 17.3872C14.696 16.6135 14.2144 15.6898 13.8986 14.6161C13.5828 13.5424 13.4249 12.3502 13.4249 11.0397C13.4249 9.30282 13.7091 7.787 14.2776 6.49223C14.846 5.19747 15.7066 4.18692 16.8592 3.46059C18.0277 2.73426 19.4961 2.37109 21.2646 2.37109C22.9541 2.37109 24.3752 2.73426 25.5278 3.46059C26.6805 4.17113 27.5489 5.18168 28.1331 6.49223C28.7331 7.787 29.0331 9.31071 29.0331 11.0634ZM15.675 11.0634C15.675 12.4845 15.8723 13.7082 16.2671 14.7345C16.6618 15.7608 17.2697 16.5503 18.0908 17.103C18.9277 17.6556 19.9777 17.9319 21.2409 17.9319C22.5199 17.9319 23.562 17.6556 24.3673 17.103C25.1883 16.5503 25.7962 15.7608 26.191 14.7345C26.5857 13.7082 26.7831 12.4845 26.7831 11.0634C26.7831 8.93176 26.341 7.26593 25.4568 6.06591C24.5725 4.85009 23.1751 4.24219 21.2646 4.24219C19.9856 4.24219 18.9277 4.51851 18.0908 5.07115C17.2697 5.608 16.6618 6.3896 16.2671 7.41594C15.8723 8.42648 15.675 9.6423 15.675 11.0634Z" fill="black"/>
<path d="M2.31958 19.5425V2.63159H4.4512V17.6477H11.8408V19.5425H2.31958Z" fill="black"/>
</svg>
